<mxfile host="app.diagrams.net" agent="Mozilla/5.0 (Macintosh; Intel Mac OS X 10_15_7) AppleWebKit/537.36 (KHTML, like Gecko) Chrome/141.0.0.0 Safari/537.36" version="28.2.5">
  <diagram name="Page-1" id="3XwT-c0FR5MciBiHRBsM">
    <mxGraphModel dx="4780" dy="2677" grid="1" gridSize="10" guides="1" tooltips="1" connect="1" arrows="1" fold="1" page="1" pageScale="1" pageWidth="850" pageHeight="1100" math="0" shadow="0">
      <root>
        <mxCell id="0" />
        <mxCell id="1" parent="0" />
        <mxCell id="M-Start" value="เริ่มต้น" style="strokeWidth=2;html=1;shape=mxgraph.flowchart.start_1;whiteSpace=wrap;" vertex="1" parent="1">
          <mxGeometry x="375" y="30" width="100" height="40" as="geometry" />
        </mxCell>
        <mxCell id="M-Edge1" style="edgeStyle=orthogonalEdgeStyle;rounded=0;orthogonalLoop=1;jettySize=auto;html=1;entryX=0.5;entryY=0;entryDx=0;entryDy=0;" edge="1" parent="1" source="M-Start" target="dOoOuusaShQaE7uh-yw1-29">
          <mxGeometry relative="1" as="geometry">
            <mxPoint x="425" y="90" as="targetPoint" />
          </mxGeometry>
        </mxCell>
        <mxCell id="M-Edge2" style="edgeStyle=orthogonalEdgeStyle;rounded=0;orthogonalLoop=1;jettySize=auto;html=1;exitX=0.5;exitY=1;exitDx=0;exitDy=0;" edge="1" parent="1" source="dOoOuusaShQaE7uh-yw1-29" target="M-Output1">
          <mxGeometry relative="1" as="geometry">
            <mxPoint x="425" y="130" as="sourcePoint" />
          </mxGeometry>
        </mxCell>
        <mxCell id="M-Output1" value="แสดงผล: &quot;Enter value:&quot;" style="shape=parallelogram;perimeter=parallelogramPerimeter;whiteSpace=wrap;html=1;fixedSize=1;" vertex="1" parent="1">
          <mxGeometry x="335" y="160" width="180" height="40" as="geometry" />
        </mxCell>
        <mxCell id="M-Edge3" style="edgeStyle=orthogonalEdgeStyle;rounded=0;orthogonalLoop=1;jettySize=auto;html=1;" edge="1" parent="1" source="M-Output1" target="M-InputLoopStart">
          <mxGeometry relative="1" as="geometry" />
        </mxCell>
        <mxCell id="dOoOuusaShQaE7uh-yw1-30" style="edgeStyle=orthogonalEdgeStyle;rounded=0;orthogonalLoop=1;jettySize=auto;html=1;exitX=0.5;exitY=1;exitDx=0;exitDy=0;entryX=0.5;entryY=0;entryDx=0;entryDy=0;" edge="1" parent="1" source="M-InputLoopStart" target="M-Condition1">
          <mxGeometry relative="1" as="geometry" />
        </mxCell>
        <mxCell id="M-InputLoopStart" value="" style="ellipse;whiteSpace=wrap;html=1;" vertex="1" parent="1">
          <mxGeometry x="415" y="220" width="20" height="20" as="geometry" />
        </mxCell>
        <mxCell id="M-Condition1" value="รับค่าจำนวนเต็ม (scanf) ลงใน arr[n] สำเร็จหรือไม่?" style="rhombus;whiteSpace=wrap;html=1;" vertex="1" parent="1">
          <mxGeometry x="325" y="254" width="200" height="80" as="geometry" />
        </mxCell>
        <mxCell id="M-Edge5-T" value="จริง (T)" style="edgeStyle=orthogonalEdgeStyle;rounded=0;orthogonalLoop=1;jettySize=auto;html=1;entryX=0.5;entryY=0;entryDx=0;entryDy=0;" edge="1" parent="1" source="M-Condition1" target="dOoOuusaShQaE7uh-yw1-31">
          <mxGeometry relative="1" as="geometry">
            <mxPoint x="425" y="390" as="targetPoint" />
            <Array as="points">
              <mxPoint x="425" y="370" />
              <mxPoint x="425" y="370" />
            </Array>
          </mxGeometry>
        </mxCell>
        <mxCell id="M-Edge5-F" value="เท็จ (F)" style="edgeStyle=orthogonalEdgeStyle;rounded=0;orthogonalLoop=1;jettySize=auto;html=1;entryX=1;entryY=0.5;entryDx=0;entryDy=0;" edge="1" parent="1" source="M-Condition1" target="M-DisplayIndexStart">
          <mxGeometry relative="1" as="geometry">
            <Array as="points">
              <mxPoint x="575" y="294" />
              <mxPoint x="575" y="610" />
            </Array>
            <mxPoint x="675" y="364" as="targetPoint" />
          </mxGeometry>
        </mxCell>
        <mxCell id="M-Edge6" style="edgeStyle=orthogonalEdgeStyle;rounded=0;orthogonalLoop=1;jettySize=auto;html=1;exitX=0.5;exitY=1;exitDx=0;exitDy=0;" edge="1" parent="1" source="dOoOuusaShQaE7uh-yw1-31" target="M-Condition2">
          <mxGeometry relative="1" as="geometry">
            <mxPoint x="425" y="430" as="sourcePoint" />
          </mxGeometry>
        </mxCell>
        <mxCell id="M-Condition2" value="อักขระถัดไป (getchar) คือ &#39;\n&#39;?" style="rhombus;whiteSpace=wrap;html=1;" vertex="1" parent="1">
          <mxGeometry x="350" y="494" width="150" height="60" as="geometry" />
        </mxCell>
        <mxCell id="M-Edge7-T" value="จริง (T)" style="edgeStyle=orthogonalEdgeStyle;rounded=0;orthogonalLoop=1;jettySize=auto;html=1;exitX=0.5;exitY=1;exitDx=0;exitDy=0;" edge="1" parent="1" source="M-Condition2" target="M-DisplayIndexStart">
          <mxGeometry relative="1" as="geometry">
            <Array as="points">
              <mxPoint x="425" y="560" />
              <mxPoint x="425" y="560" />
            </Array>
          </mxGeometry>
        </mxCell>
        <mxCell id="M-Edge7-F" value="เท็จ (F)" style="edgeStyle=orthogonalEdgeStyle;rounded=0;orthogonalLoop=1;jettySize=auto;html=1;exitX=0;exitY=0.5;exitDx=0;exitDy=0;entryX=0;entryY=0.5;entryDx=0;entryDy=0;" edge="1" parent="1" source="M-Condition2" target="M-InputLoopStart">
          <mxGeometry relative="1" as="geometry">
            <Array as="points">
              <mxPoint x="260" y="524" />
              <mxPoint x="260" y="230" />
            </Array>
          </mxGeometry>
        </mxCell>
        <mxCell id="dOoOuusaShQaE7uh-yw1-5" style="edgeStyle=orthogonalEdgeStyle;rounded=0;orthogonalLoop=1;jettySize=auto;html=1;exitX=0.5;exitY=1;exitDx=0;exitDy=0;entryX=0.5;entryY=0;entryDx=0;entryDy=0;" edge="1" parent="1" source="M-DisplayIndexStart" target="M-Output2">
          <mxGeometry relative="1" as="geometry" />
        </mxCell>
        <mxCell id="M-DisplayIndexStart" value="" style="ellipse;whiteSpace=wrap;html=1;" vertex="1" parent="1">
          <mxGeometry x="415" y="600" width="20" height="20" as="geometry" />
        </mxCell>
        <mxCell id="M-Output2" value="แสดงผล: &quot;Index: &quot;" style="shape=parallelogram;perimeter=parallelogramPerimeter;whiteSpace=wrap;html=1;fixedSize=1;" vertex="1" parent="1">
          <mxGeometry x="345" y="650" width="160" height="40" as="geometry" />
        </mxCell>
        <mxCell id="M-Edge9" style="edgeStyle=orthogonalEdgeStyle;rounded=0;orthogonalLoop=1;jettySize=auto;html=1;entryX=0.5;entryY=0;entryDx=0;entryDy=0;" edge="1" parent="1" source="M-Output2" target="dOoOuusaShQaE7uh-yw1-32">
          <mxGeometry relative="1" as="geometry">
            <mxPoint x="424.99999999999955" y="710" as="targetPoint" />
          </mxGeometry>
        </mxCell>
        <mxCell id="M-Edge10" style="edgeStyle=orthogonalEdgeStyle;rounded=0;orthogonalLoop=1;jettySize=auto;html=1;entryX=0.5;entryY=0;entryDx=0;entryDy=0;exitX=0.5;exitY=1;exitDx=0;exitDy=0;" edge="1" parent="1" source="dOoOuusaShQaE7uh-yw1-32" target="dOoOuusaShQaE7uh-yw1-6">
          <mxGeometry relative="1" as="geometry">
            <mxPoint x="424.99999999999955" y="750" as="sourcePoint" />
          </mxGeometry>
        </mxCell>
        <mxCell id="M-Condition3" value="i &lt; n?" style="rhombus;whiteSpace=wrap;html=1;" vertex="1" parent="1">
          <mxGeometry x="385" y="810" width="80" height="60" as="geometry" />
        </mxCell>
        <mxCell id="M-Edge11-T" value="จริง (T)" style="edgeStyle=orthogonalEdgeStyle;rounded=0;orthogonalLoop=1;jettySize=auto;html=1;" edge="1" parent="1" source="M-Condition3" target="M-Output3">
          <mxGeometry relative="1" as="geometry">
            <mxPoint x="425" y="890" as="targetPoint" />
          </mxGeometry>
        </mxCell>
        <mxCell id="M-Edge11-F" value="เท็จ (F)" style="edgeStyle=orthogonalEdgeStyle;rounded=0;orthogonalLoop=1;jettySize=auto;html=1;entryX=0.5;entryY=0;entryDx=0;entryDy=0;exitX=0;exitY=0.5;exitDx=0;exitDy=0;" edge="1" parent="1" source="M-Condition3" target="M-Output4">
          <mxGeometry x="-0.1325" relative="1" as="geometry">
            <Array as="points">
              <mxPoint x="295" y="840" />
              <mxPoint x="295" y="1010" />
              <mxPoint x="420" y="1010" />
            </Array>
            <mxPoint x="350" y="860" as="sourcePoint" />
            <mxPoint x="470.03999999999996" y="960.0000000000002" as="targetPoint" />
            <mxPoint as="offset" />
          </mxGeometry>
        </mxCell>
        <mxCell id="M-Output3" value="แสดงผล: i" style="shape=parallelogram;perimeter=parallelogramPerimeter;whiteSpace=wrap;html=1;fixedSize=1;" vertex="1" parent="1">
          <mxGeometry x="365" y="890" width="120" height="40" as="geometry" />
        </mxCell>
        <mxCell id="M-Edge12" style="edgeStyle=orthogonalEdgeStyle;rounded=0;orthogonalLoop=1;jettySize=auto;html=1;" edge="1" parent="1" source="M-Output3">
          <mxGeometry relative="1" as="geometry">
            <mxPoint x="424.99999999999955" y="950" as="targetPoint" />
          </mxGeometry>
        </mxCell>
        <mxCell id="M-Edge13" style="edgeStyle=orthogonalEdgeStyle;rounded=0;orthogonalLoop=1;jettySize=auto;html=1;entryX=1;entryY=0.5;entryDx=0;entryDy=0;" edge="1" parent="1" target="dOoOuusaShQaE7uh-yw1-6">
          <mxGeometry relative="1" as="geometry">
            <Array as="points">
              <mxPoint x="520" y="970" />
              <mxPoint x="520" y="780" />
            </Array>
            <mxPoint x="484.99999999999955" y="970.0270270270269" as="sourcePoint" />
            <mxPoint x="500" y="880" as="targetPoint" />
          </mxGeometry>
        </mxCell>
        <mxCell id="M-Output4" value="แสดงผล: &quot;\nArray: &quot;" style="shape=parallelogram;perimeter=parallelogramPerimeter;whiteSpace=wrap;html=1;fixedSize=1;" vertex="1" parent="1">
          <mxGeometry x="339.99999999999994" y="1040" width="160" height="40" as="geometry" />
        </mxCell>
        <mxCell id="M-Edge15" style="edgeStyle=orthogonalEdgeStyle;rounded=0;orthogonalLoop=1;jettySize=auto;html=1;" edge="1" parent="1" source="M-Output4">
          <mxGeometry relative="1" as="geometry">
            <mxPoint x="420.02702702702663" y="1100" as="targetPoint" />
          </mxGeometry>
        </mxCell>
        <mxCell id="M-Edge16" style="edgeStyle=orthogonalEdgeStyle;rounded=0;orthogonalLoop=1;jettySize=auto;html=1;entryX=0.5;entryY=0;entryDx=0;entryDy=0;" edge="1" parent="1" target="dOoOuusaShQaE7uh-yw1-8">
          <mxGeometry relative="1" as="geometry">
            <mxPoint x="420.02702702702663" y="1140" as="sourcePoint" />
          </mxGeometry>
        </mxCell>
        <mxCell id="M-Condition4" value="i &lt; n?" style="rhombus;whiteSpace=wrap;html=1;" vertex="1" parent="1">
          <mxGeometry x="379.99999999999994" y="1210" width="80" height="60" as="geometry" />
        </mxCell>
        <mxCell id="M-Edge17-T" value="จริง (T)" style="edgeStyle=orthogonalEdgeStyle;rounded=0;orthogonalLoop=1;jettySize=auto;html=1;" edge="1" parent="1" source="M-Condition4" target="M-Output5">
          <mxGeometry relative="1" as="geometry">
            <mxPoint x="419.99999999999994" y="1290" as="targetPoint" />
          </mxGeometry>
        </mxCell>
        <mxCell id="M-Edge17-F" value="เท็จ (F)" style="edgeStyle=orthogonalEdgeStyle;rounded=0;orthogonalLoop=1;jettySize=auto;html=1;entryX=0.5;entryY=0;entryDx=0;entryDy=0;" edge="1" parent="1" source="M-Condition4">
          <mxGeometry relative="1" as="geometry">
            <Array as="points">
              <mxPoint x="505" y="1240" />
              <mxPoint x="505" y="1400" />
              <mxPoint x="415" y="1400" />
            </Array>
            <mxPoint x="414.99999999999955" y="1420" as="targetPoint" />
          </mxGeometry>
        </mxCell>
        <mxCell id="M-Output5" value="แสดงผล: arr[i]" style="shape=parallelogram;perimeter=parallelogramPerimeter;whiteSpace=wrap;html=1;fixedSize=1;" vertex="1" parent="1">
          <mxGeometry x="359.99999999999994" y="1290" width="120" height="40" as="geometry" />
        </mxCell>
        <mxCell id="M-Edge18" style="edgeStyle=orthogonalEdgeStyle;rounded=0;orthogonalLoop=1;jettySize=auto;html=1;" edge="1" parent="1" source="M-Output5">
          <mxGeometry relative="1" as="geometry">
            <mxPoint x="420.02702702702663" y="1350" as="targetPoint" />
          </mxGeometry>
        </mxCell>
        <mxCell id="M-Edge19" style="edgeStyle=orthogonalEdgeStyle;rounded=0;orthogonalLoop=1;jettySize=auto;html=1;entryX=0;entryY=0.5;entryDx=0;entryDy=0;" edge="1" parent="1" target="dOoOuusaShQaE7uh-yw1-8">
          <mxGeometry relative="1" as="geometry">
            <Array as="points">
              <mxPoint x="340" y="1370" />
              <mxPoint x="340" y="1180" />
            </Array>
            <mxPoint x="360" y="1370.027027027027" as="sourcePoint" />
          </mxGeometry>
        </mxCell>
        <mxCell id="dOoOuusaShQaE7uh-yw1-2" style="edgeStyle=orthogonalEdgeStyle;rounded=0;orthogonalLoop=1;jettySize=auto;html=1;exitX=0.5;exitY=1;exitDx=0;exitDy=0;entryX=0.5;entryY=0;entryDx=0;entryDy=0;" edge="1" parent="1" target="M-Output6">
          <mxGeometry relative="1" as="geometry">
            <mxPoint x="414.99999999999955" y="1460" as="sourcePoint" />
          </mxGeometry>
        </mxCell>
        <mxCell id="dOoOuusaShQaE7uh-yw1-3" style="edgeStyle=orthogonalEdgeStyle;rounded=0;orthogonalLoop=1;jettySize=auto;html=1;exitX=0.5;exitY=1;exitDx=0;exitDy=0;" edge="1" parent="1" source="M-Output6">
          <mxGeometry relative="1" as="geometry">
            <mxPoint x="414.90909090909054" y="1550" as="targetPoint" />
          </mxGeometry>
        </mxCell>
        <mxCell id="M-Output6" value="แสดงผล: &quot;Min : &quot; + ค่าต่ำสุด" style="shape=parallelogram;perimeter=parallelogramPerimeter;whiteSpace=wrap;html=1;fixedSize=1;" vertex="1" parent="1">
          <mxGeometry x="334.99999999999994" y="1490" width="160" height="40" as="geometry" />
        </mxCell>
        <mxCell id="dOoOuusaShQaE7uh-yw1-4" style="edgeStyle=orthogonalEdgeStyle;rounded=0;orthogonalLoop=1;jettySize=auto;html=1;exitX=0.5;exitY=1;exitDx=0;exitDy=0;entryX=0.5;entryY=0;entryDx=0;entryDy=0;" edge="1" parent="1" target="M-Output7">
          <mxGeometry relative="1" as="geometry">
            <mxPoint x="414.99999999999955" y="1590" as="sourcePoint" />
          </mxGeometry>
        </mxCell>
        <mxCell id="M-Output7" value="แสดงผล: &quot;Max : &quot; + ค่าสูงสุด" style="shape=parallelogram;perimeter=parallelogramPerimeter;whiteSpace=wrap;html=1;fixedSize=1;" vertex="1" parent="1">
          <mxGeometry x="334.99999999999994" y="1610" width="160" height="40" as="geometry" />
        </mxCell>
        <mxCell id="M-Edge20" style="edgeStyle=orthogonalEdgeStyle;rounded=0;orthogonalLoop=1;jettySize=auto;html=1;entryX=0.5;entryY=0;entryDx=0;entryDy=0;entryPerimeter=0;" edge="1" parent="1" source="M-Output7" target="M-Stop">
          <mxGeometry relative="1" as="geometry">
            <mxPoint x="415" y="1670" as="targetPoint" />
          </mxGeometry>
        </mxCell>
        <mxCell id="M-Stop" value="สิ้นสุด" style="strokeWidth=2;html=1;shape=mxgraph.flowchart.start_1;whiteSpace=wrap;" vertex="1" parent="1">
          <mxGeometry x="364.99999999999994" y="1680" width="100" height="40" as="geometry" />
        </mxCell>
        <mxCell id="MN-Edge1" style="edgeStyle=orthogonalEdgeStyle;rounded=0;orthogonalLoop=1;jettySize=auto;html=1;entryX=0.5;entryY=0;entryDx=0;entryDy=0;" edge="1" parent="1" target="dOoOuusaShQaE7uh-yw1-22">
          <mxGeometry relative="1" as="geometry">
            <mxPoint x="1480.0476190476184" y="80" as="sourcePoint" />
            <mxPoint x="1480.0370370370365" y="100" as="targetPoint" />
          </mxGeometry>
        </mxCell>
        <mxCell id="MN-Edge2" style="edgeStyle=orthogonalEdgeStyle;rounded=0;orthogonalLoop=1;jettySize=auto;html=1;entryX=0.5;entryY=0;entryDx=0;entryDy=0;" edge="1" parent="1" target="dOoOuusaShQaE7uh-yw1-23">
          <mxGeometry relative="1" as="geometry">
            <mxPoint x="1480.0370370370365" y="140" as="sourcePoint" />
            <mxPoint x="1480.0370370370365" y="160" as="targetPoint" />
          </mxGeometry>
        </mxCell>
        <mxCell id="MN-Edge3" style="edgeStyle=orthogonalEdgeStyle;rounded=0;orthogonalLoop=1;jettySize=auto;html=1;exitX=0.5;exitY=1;exitDx=0;exitDy=0;" edge="1" parent="1" source="dOoOuusaShQaE7uh-yw1-23" target="MN-Condition1">
          <mxGeometry relative="1" as="geometry">
            <mxPoint x="1480.0370370370365" y="200" as="sourcePoint" />
          </mxGeometry>
        </mxCell>
        <mxCell id="MN-Condition1" value="i &lt; n?" style="rhombus;whiteSpace=wrap;html=1;" vertex="1" parent="1">
          <mxGeometry x="1430" y="220" width="100" height="60" as="geometry" />
        </mxCell>
        <mxCell id="MN-Edge4-T" value="จริง (T)" style="edgeStyle=orthogonalEdgeStyle;rounded=0;orthogonalLoop=1;jettySize=auto;html=1;" edge="1" parent="1" source="MN-Condition1" target="MN-Condition2">
          <mxGeometry relative="1" as="geometry" />
        </mxCell>
        <mxCell id="MN-Edge4-F" value="เท็จ (F)" style="edgeStyle=orthogonalEdgeStyle;rounded=0;orthogonalLoop=1;jettySize=auto;html=1;entryX=0.5;entryY=0;entryDx=0;entryDy=0;entryPerimeter=0;" edge="1" parent="1" source="MN-Condition1" target="dOoOuusaShQaE7uh-yw1-39">
          <mxGeometry relative="1" as="geometry">
            <Array as="points">
              <mxPoint x="1580" y="250" />
              <mxPoint x="1580" y="450" />
              <mxPoint x="1480" y="450" />
            </Array>
            <mxPoint x="1530" y="480" as="targetPoint" />
          </mxGeometry>
        </mxCell>
        <mxCell id="MN-Condition2" value="arr[i] &lt; ค่าต่ำสุด?" style="rhombus;whiteSpace=wrap;html=1;" vertex="1" parent="1">
          <mxGeometry x="1410" y="310" width="140" height="60" as="geometry" />
        </mxCell>
        <mxCell id="MN-Edge5-T" value="จริง (T)" style="edgeStyle=orthogonalEdgeStyle;rounded=0;orthogonalLoop=1;jettySize=auto;html=1;" edge="1" parent="1" source="MN-Condition2">
          <mxGeometry relative="1" as="geometry">
            <mxPoint x="1480.0370370370365" y="400" as="targetPoint" />
          </mxGeometry>
        </mxCell>
        <mxCell id="MN-Edge5-F" value="เท็จ (F)" style="edgeStyle=orthogonalEdgeStyle;rounded=0;orthogonalLoop=1;jettySize=auto;html=1;entryX=1;entryY=0.5;entryDx=0;entryDy=0;" edge="1" parent="1" source="MN-Condition2" target="dOoOuusaShQaE7uh-yw1-10">
          <mxGeometry relative="1" as="geometry">
            <Array as="points">
              <mxPoint x="1360" y="340" />
              <mxPoint x="1360" y="340" />
            </Array>
          </mxGeometry>
        </mxCell>
        <mxCell id="MN-Edge6" style="edgeStyle=orthogonalEdgeStyle;rounded=0;orthogonalLoop=1;jettySize=auto;html=1;entryX=0.5;entryY=1;entryDx=0;entryDy=0;" edge="1" parent="1" target="dOoOuusaShQaE7uh-yw1-10">
          <mxGeometry relative="1" as="geometry">
            <mxPoint x="1410" y="420" as="sourcePoint" />
          </mxGeometry>
        </mxCell>
        <mxCell id="MN-Edge7" style="edgeStyle=orthogonalEdgeStyle;rounded=0;orthogonalLoop=1;jettySize=auto;html=1;exitX=0.5;exitY=0;exitDx=0;exitDy=0;" edge="1" parent="1" source="dOoOuusaShQaE7uh-yw1-21" target="MN-Condition1">
          <mxGeometry relative="1" as="geometry">
            <Array as="points">
              <mxPoint x="1300" y="340" />
              <mxPoint x="1300" y="250" />
            </Array>
            <mxPoint x="1300" y="270" as="sourcePoint" />
          </mxGeometry>
        </mxCell>
        <mxCell id="MX-Edge1" style="edgeStyle=orthogonalEdgeStyle;rounded=0;orthogonalLoop=1;jettySize=auto;html=1;entryX=0.5;entryY=0;entryDx=0;entryDy=0;" edge="1" parent="1" target="dOoOuusaShQaE7uh-yw1-14">
          <mxGeometry relative="1" as="geometry">
            <mxPoint x="909.9333333333329" y="80" as="sourcePoint" />
            <mxPoint x="909.9333333333329" y="100" as="targetPoint" />
          </mxGeometry>
        </mxCell>
        <mxCell id="MX-Edge2" style="edgeStyle=orthogonalEdgeStyle;rounded=0;orthogonalLoop=1;jettySize=auto;html=1;exitX=0.5;exitY=1;exitDx=0;exitDy=0;entryX=0.5;entryY=0;entryDx=0;entryDy=0;" edge="1" parent="1" source="dOoOuusaShQaE7uh-yw1-14" target="dOoOuusaShQaE7uh-yw1-15">
          <mxGeometry relative="1" as="geometry">
            <mxPoint x="909.9333333333329" y="120" as="sourcePoint" />
            <mxPoint x="909.9333333333329" y="140" as="targetPoint" />
          </mxGeometry>
        </mxCell>
        <mxCell id="MX-Edge3" style="edgeStyle=orthogonalEdgeStyle;rounded=0;orthogonalLoop=1;jettySize=auto;html=1;exitX=0.5;exitY=1;exitDx=0;exitDy=0;" edge="1" parent="1" source="dOoOuusaShQaE7uh-yw1-15" target="MX-Condition1">
          <mxGeometry relative="1" as="geometry">
            <mxPoint x="900.003333333333" y="337" as="sourcePoint" />
          </mxGeometry>
        </mxCell>
        <mxCell id="MX-Condition1" value="i &lt; n?" style="rhombus;whiteSpace=wrap;html=1;" vertex="1" parent="1">
          <mxGeometry x="860.0200000000001" y="230" width="100" height="60" as="geometry" />
        </mxCell>
        <mxCell id="MX-Edge4-T" value="จริง (T)" style="edgeStyle=orthogonalEdgeStyle;rounded=0;orthogonalLoop=1;jettySize=auto;html=1;" edge="1" parent="1" source="MX-Condition1" target="MX-Condition2">
          <mxGeometry relative="1" as="geometry" />
        </mxCell>
        <mxCell id="MX-Edge4-F" value="เท็จ (F)" style="edgeStyle=orthogonalEdgeStyle;rounded=0;orthogonalLoop=1;jettySize=auto;html=1;entryX=0.5;entryY=0;entryDx=0;entryDy=0;entryPerimeter=0;" edge="1" parent="1" source="MX-Condition1" target="dOoOuusaShQaE7uh-yw1-38">
          <mxGeometry relative="1" as="geometry">
            <Array as="points">
              <mxPoint x="810" y="260" />
              <mxPoint x="810" y="520" />
              <mxPoint x="910" y="520" />
            </Array>
            <mxPoint x="860.02" y="544" as="targetPoint" />
          </mxGeometry>
        </mxCell>
        <mxCell id="MX-Condition2" value="arr[i] &gt; ค่าสูงสุด?" style="rhombus;whiteSpace=wrap;html=1;" vertex="1" parent="1">
          <mxGeometry x="840.0200000000001" y="320" width="140" height="60" as="geometry" />
        </mxCell>
        <mxCell id="MX-Edge5-T" value="จริง (T)" style="edgeStyle=orthogonalEdgeStyle;rounded=0;orthogonalLoop=1;jettySize=auto;html=1;entryX=0.5;entryY=0;entryDx=0;entryDy=0;" edge="1" parent="1" source="MX-Condition2" target="dOoOuusaShQaE7uh-yw1-16">
          <mxGeometry relative="1" as="geometry">
            <mxPoint x="910.02" y="440" as="targetPoint" />
          </mxGeometry>
        </mxCell>
        <mxCell id="MX-Edge5-F" value="เท็จ (F)" style="edgeStyle=orthogonalEdgeStyle;rounded=0;orthogonalLoop=1;jettySize=auto;html=1;entryX=0;entryY=0.5;entryDx=0;entryDy=0;" edge="1" parent="1" source="MX-Condition2" target="dOoOuusaShQaE7uh-yw1-19">
          <mxGeometry relative="1" as="geometry">
            <Array as="points" />
            <mxPoint x="1060.02" y="350" as="targetPoint" />
          </mxGeometry>
        </mxCell>
        <mxCell id="MX-Edge6" style="edgeStyle=orthogonalEdgeStyle;rounded=0;orthogonalLoop=1;jettySize=auto;html=1;exitX=1;exitY=0.5;exitDx=0;exitDy=0;entryX=0.5;entryY=1;entryDx=0;entryDy=0;" edge="1" parent="1" source="dOoOuusaShQaE7uh-yw1-16" target="dOoOuusaShQaE7uh-yw1-19">
          <mxGeometry relative="1" as="geometry">
            <mxPoint x="980.02" y="460" as="sourcePoint" />
            <mxPoint x="1120.0270270270266" y="370" as="targetPoint" />
          </mxGeometry>
        </mxCell>
        <mxCell id="dOoOuusaShQaE7uh-yw1-7" style="edgeStyle=orthogonalEdgeStyle;rounded=0;orthogonalLoop=1;jettySize=auto;html=1;exitX=0.5;exitY=1;exitDx=0;exitDy=0;entryX=0.5;entryY=0;entryDx=0;entryDy=0;" edge="1" parent="1" source="dOoOuusaShQaE7uh-yw1-6" target="M-Condition3">
          <mxGeometry relative="1" as="geometry" />
        </mxCell>
        <mxCell id="dOoOuusaShQaE7uh-yw1-6" value="" style="ellipse;whiteSpace=wrap;html=1;" vertex="1" parent="1">
          <mxGeometry x="415" y="770" width="20" height="20" as="geometry" />
        </mxCell>
        <mxCell id="dOoOuusaShQaE7uh-yw1-9" style="edgeStyle=orthogonalEdgeStyle;rounded=0;orthogonalLoop=1;jettySize=auto;html=1;exitX=0.5;exitY=1;exitDx=0;exitDy=0;entryX=0.5;entryY=0;entryDx=0;entryDy=0;" edge="1" parent="1" source="dOoOuusaShQaE7uh-yw1-8" target="M-Condition4">
          <mxGeometry relative="1" as="geometry" />
        </mxCell>
        <mxCell id="dOoOuusaShQaE7uh-yw1-8" value="" style="ellipse;whiteSpace=wrap;html=1;" vertex="1" parent="1">
          <mxGeometry x="410" y="1170" width="20" height="20" as="geometry" />
        </mxCell>
        <mxCell id="dOoOuusaShQaE7uh-yw1-11" style="edgeStyle=orthogonalEdgeStyle;rounded=0;orthogonalLoop=1;jettySize=auto;html=1;exitX=0.5;exitY=0;exitDx=0;exitDy=0;entryX=0.5;entryY=1;entryDx=0;entryDy=0;" edge="1" parent="1" source="dOoOuusaShQaE7uh-yw1-10" target="dOoOuusaShQaE7uh-yw1-21">
          <mxGeometry relative="1" as="geometry">
            <mxPoint x="1300" y="310" as="targetPoint" />
          </mxGeometry>
        </mxCell>
        <mxCell id="dOoOuusaShQaE7uh-yw1-10" value="" style="ellipse;whiteSpace=wrap;html=1;" vertex="1" parent="1">
          <mxGeometry x="1290" y="330" width="20" height="20" as="geometry" />
        </mxCell>
        <mxCell id="dOoOuusaShQaE7uh-yw1-13" value="เริ่มต้น (ฟังก์ชัน findMax)" style="strokeWidth=2;html=1;shape=mxgraph.flowchart.start_1;whiteSpace=wrap;" vertex="1" parent="1">
          <mxGeometry x="829.95" y="40" width="160" height="40" as="geometry" />
        </mxCell>
        <mxCell id="dOoOuusaShQaE7uh-yw1-14" value="ค่าสูงสุด ← arr[0]" style="rounded=0;whiteSpace=wrap;html=1;" vertex="1" parent="1">
          <mxGeometry x="849.95" y="110" width="120" height="40" as="geometry" />
        </mxCell>
        <mxCell id="dOoOuusaShQaE7uh-yw1-15" value="ค่าสูงสุด ← arr[0]" style="rounded=0;whiteSpace=wrap;html=1;" vertex="1" parent="1">
          <mxGeometry x="849.95" y="170" width="120" height="40" as="geometry" />
        </mxCell>
        <mxCell id="dOoOuusaShQaE7uh-yw1-16" value="ค่าสูงสุด ← arr[i]" style="rounded=0;whiteSpace=wrap;html=1;" vertex="1" parent="1">
          <mxGeometry x="850.02" y="444" width="120" height="50" as="geometry" />
        </mxCell>
        <mxCell id="dOoOuusaShQaE7uh-yw1-18" style="edgeStyle=orthogonalEdgeStyle;rounded=0;orthogonalLoop=1;jettySize=auto;html=1;exitX=0.5;exitY=0;exitDx=0;exitDy=0;entryX=1;entryY=0.5;entryDx=0;entryDy=0;" edge="1" parent="1" source="dOoOuusaShQaE7uh-yw1-17" target="MX-Condition1">
          <mxGeometry relative="1" as="geometry">
            <Array as="points">
              <mxPoint x="1120" y="260" />
            </Array>
          </mxGeometry>
        </mxCell>
        <mxCell id="dOoOuusaShQaE7uh-yw1-17" value="i = i + 1" style="rounded=0;whiteSpace=wrap;html=1;" vertex="1" parent="1">
          <mxGeometry x="1060" y="276" width="120" height="40" as="geometry" />
        </mxCell>
        <mxCell id="dOoOuusaShQaE7uh-yw1-20" style="edgeStyle=orthogonalEdgeStyle;rounded=0;orthogonalLoop=1;jettySize=auto;html=1;exitX=0.5;exitY=0;exitDx=0;exitDy=0;entryX=0.5;entryY=1;entryDx=0;entryDy=0;" edge="1" parent="1" source="dOoOuusaShQaE7uh-yw1-19" target="dOoOuusaShQaE7uh-yw1-17">
          <mxGeometry relative="1" as="geometry" />
        </mxCell>
        <mxCell id="dOoOuusaShQaE7uh-yw1-19" value="" style="ellipse;whiteSpace=wrap;html=1;" vertex="1" parent="1">
          <mxGeometry x="1110" y="340" width="20" height="20" as="geometry" />
        </mxCell>
        <mxCell id="dOoOuusaShQaE7uh-yw1-21" value="i = i + 1" style="rounded=0;whiteSpace=wrap;html=1;" vertex="1" parent="1">
          <mxGeometry x="1240" y="270" width="120" height="40" as="geometry" />
        </mxCell>
        <mxCell id="dOoOuusaShQaE7uh-yw1-22" value="ค่าต่ำสุด ← arr[0]" style="rounded=0;whiteSpace=wrap;html=1;" vertex="1" parent="1">
          <mxGeometry x="1420" y="100" width="120" height="40" as="geometry" />
        </mxCell>
        <mxCell id="dOoOuusaShQaE7uh-yw1-23" value="i ← 1" style="rounded=0;whiteSpace=wrap;html=1;" vertex="1" parent="1">
          <mxGeometry x="1420" y="160" width="120" height="40" as="geometry" />
        </mxCell>
        <mxCell id="dOoOuusaShQaE7uh-yw1-25" value="ค่าต่ำสุด ← arr[i]" style="rounded=0;whiteSpace=wrap;html=1;" vertex="1" parent="1">
          <mxGeometry x="1410" y="400" width="120" height="40" as="geometry" />
        </mxCell>
        <mxCell id="dOoOuusaShQaE7uh-yw1-29" value="ประกาศตัวแปร:&lt;br&gt;arr[100], n = 0" style="rounded=0;whiteSpace=wrap;html=1;" vertex="1" parent="1">
          <mxGeometry x="320" y="90" width="210" height="50" as="geometry" />
        </mxCell>
        <mxCell id="dOoOuusaShQaE7uh-yw1-31" value="n = n + 1" style="rounded=0;whiteSpace=wrap;html=1;" vertex="1" parent="1">
          <mxGeometry x="365" y="400" width="120" height="44" as="geometry" />
        </mxCell>
        <mxCell id="dOoOuusaShQaE7uh-yw1-32" value="i = 0" style="rounded=0;whiteSpace=wrap;html=1;" vertex="1" parent="1">
          <mxGeometry x="365" y="710" width="120" height="40" as="geometry" />
        </mxCell>
        <mxCell id="dOoOuusaShQaE7uh-yw1-33" value="i = i + 1" style="rounded=0;whiteSpace=wrap;html=1;" vertex="1" parent="1">
          <mxGeometry x="365" y="950" width="120" height="40" as="geometry" />
        </mxCell>
        <mxCell id="dOoOuusaShQaE7uh-yw1-34" value="i = 0" style="rounded=0;whiteSpace=wrap;html=1;" vertex="1" parent="1">
          <mxGeometry x="360" y="1100" width="120" height="40" as="geometry" />
        </mxCell>
        <mxCell id="dOoOuusaShQaE7uh-yw1-35" value="i = i + 1" style="rounded=0;whiteSpace=wrap;html=1;" vertex="1" parent="1">
          <mxGeometry x="360" y="1350" width="120" height="40" as="geometry" />
        </mxCell>
        <mxCell id="dOoOuusaShQaE7uh-yw1-36" value="เรียกใช้ findMin(arr, n)" style="shape=process;whiteSpace=wrap;html=1;backgroundOutline=1;" vertex="1" parent="1">
          <mxGeometry x="320" y="1420" width="190" height="40" as="geometry" />
        </mxCell>
        <mxCell id="dOoOuusaShQaE7uh-yw1-37" value="เรียกใช้ findMax(arr, n)" style="shape=process;whiteSpace=wrap;html=1;backgroundOutline=1;" vertex="1" parent="1">
          <mxGeometry x="305" y="1550" width="220" height="40" as="geometry" />
        </mxCell>
        <mxCell id="dOoOuusaShQaE7uh-yw1-38" value="สิ้นสุด(Return)" style="strokeWidth=2;html=1;shape=mxgraph.flowchart.start_1;whiteSpace=wrap;" vertex="1" parent="1">
          <mxGeometry x="859.95" y="540" width="100" height="40" as="geometry" />
        </mxCell>
        <mxCell id="dOoOuusaShQaE7uh-yw1-39" value="สิ้นสุด(Return)" style="strokeWidth=2;html=1;shape=mxgraph.flowchart.start_1;whiteSpace=wrap;" vertex="1" parent="1">
          <mxGeometry x="1430" y="470" width="100" height="40" as="geometry" />
        </mxCell>
        <mxCell id="dOoOuusaShQaE7uh-yw1-40" value="เริ่มต้น (ฟังก์ชัน findMin)" style="strokeWidth=2;html=1;shape=mxgraph.flowchart.start_1;whiteSpace=wrap;" vertex="1" parent="1">
          <mxGeometry x="1400" y="40" width="160" height="40" as="geometry" />
        </mxCell>
      </root>
    </mxGraphModel>
  </diagram>
</mxfile>
